<?xml version="1.0"?>
<svg width="175" height="90" xmlns="http://www.w3.org/2000/svg" xmlns:svg="http://www.w3.org/2000/svg" preserveAspectRatio="xMidYMid meet" version="1.0">
 <g class="layer">
  <title>Layer 1</title>
  <g fill="#ffffff" id="svg_1" transform="matrix(0.1 0 0 -0.1 0 0)">
   <path d="m0,-450l0,-450l49,0c130,0 234,43 326,135c72,73 110,146 127,243c39,229 -115,460 -338,507c-38,8 -90,15 -116,15l-48,0l0,-450zm229,286c247,-144 201,-531 -71,-604l-38,-10l0,329l0,329l28,-6c15,-3 51,-20 81,-38z" id="svg_2"/>
   <path d="m930,-11c-127,-25 -257,-126 -312,-243c-125,-268 23,-571 310,-632c104,-22 101,-23 101,45l0,58l-54,6c-101,10 -210,89 -259,187c-32,66 -32,215 1,282c49,99 158,176 264,186l48,5l0,58c0,58 0,59 -27,58c-16,-1 -48,-5 -72,-10z" id="svg_3"/>
   <path d="m1094,-14c-3,-7 -4,-177 -2,-377c3,-356 3,-365 26,-406c12,-24 41,-55 64,-70c35,-24 52,-28 109,-28c54,0 73,4 97,22l29,22l48,-25c114,-57 241,-1 274,121c7,25 11,170 11,398l0,357l-60,0l-60,0l0,-368l0,-369l-23,-21c-31,-29 -77,-29 -105,1c-22,23 -22,27 -22,390l0,367l-60,0l-60,0l0,-370c0,-357 -1,-371 -20,-390c-30,-30 -83,-27 -109,6c-20,26 -21,38 -21,390l0,364l-55,0c-38,0 -57,-4 -61,-14z" id="svg_4"/>
  </g>
 </g>
</svg>