<?xml version="1.0" encoding="UTF-8" standalone="no"?>
<!DOCTYPE svg PUBLIC "-//W3C//DTD SVG 1.1//EN" "http://www.w3.org/Graphics/SVG/1.1/DTD/svg11.dtd">
<svg xmlns="http://www.w3.org/2000/svg" version="1.1" viewBox="0.00 0.00 489.00 512.00">
<g stroke-width="2.00" fill="none" stroke-linecap="butt">
<path stroke="#d3d3d4" vector-effect="non-scaling-stroke" d="
  M 191.02 29.29
  C 81.53 55.29 0.34 147.23 2.60 262.80
  C 5.06 388.70 102.82 483.21 225.87 493.97
  C 384.48 507.84 502.90 356.76 475.20 206.09
  Q 473.39 196.24 470.39 186.71
  C 437.17 81.14 335.76 18.34 226.81 23.68
  C 215.18 24.25 201.80 26.74 191.02 29.29"
/>
<path stroke="#d3d3d4" vector-effect="non-scaling-stroke" d="
  M 209.72 30.38
  C 104.00 47.80 16.64 129.35 8.36 239.01
  C 3.13 308.34 26.82 375.35 77.57 423.07
  C 119.01 462.03 173.85 486.22 231.32 489.39
  C 384.65 497.84 497.96 352.69 470.02 206.07
  Q 468.13 196.14 465.04 186.72
  C 431.57 84.84 337.16 26.43 231.87 28.29
  C 224.56 28.42 216.82 29.21 209.72 30.38"
/>
<path stroke="#9fa0a8" vector-effect="non-scaling-stroke" d="
  M 339.57 158.66
  C 295.14 115.84 216.33 109.79 165.92 145.68
  C 149.00 157.72 144.36 173.94 141.23 193.49
  Q 132.16 250.30 123.60 307.17
  Q 121.66 320.02 122.42 325.39
  C 124.98 343.50 139.87 351.85 156.51 354.46
  Q 181.68 358.42 203.55 360.74
  C 273.44 368.17 339.23 345.77 366.56 276.66
  C 382.63 236.00 370.70 188.66 339.57 158.66"
/>
<path stroke="#9fa0a8" vector-effect="non-scaling-stroke" d="
  M 290.97 185.69
  C 264.40 165.27 232.51 170.23 202.40 177.81
  A 1.84 1.82 -2.9 0 0 201.03 179.31
  Q 191.32 241.77 181.74 304.50
  Q 181.39 306.74 181.66 308.17
  Q 181.77 308.80 182.41 308.84
  Q 201.76 310.12 221.11 311.40
  C 252.40 313.46 284.66 310.69 304.29 280.79
  C 324.39 250.17 320.92 208.71 290.97 185.69"
/>
</g>
<g fill="#ffffff">
<!-- <path d="
  M 0.00 0.00
  L 489.00 0.00
  L 489.00 512.00
  L 0.00 512.00
  L 0.00 0.00
  Z
  M 191.02 29.29
  C 81.53 55.29 0.34 147.23 2.60 262.80
  C 5.06 388.70 102.82 483.21 225.87 493.97
  C 384.48 507.84 502.90 356.76 475.20 206.09
  Q 473.39 196.24 470.39 186.71
  C 437.17 81.14 335.76 18.34 226.81 23.68
  C 215.18 24.25 201.80 26.74 191.02 29.29
  Z"
/> -->
<path d="
  M 8.36 239.01
  C 16.64 129.35 104.00 47.80 209.72 30.38
  C 216.82 29.21 224.56 28.42 231.87 28.29
  C 337.16 26.43 431.57 84.84 465.04 186.72
  Q 468.13 196.14 470.02 206.07
  C 497.96 352.69 384.65 497.84 231.32 489.39
  C 173.85 486.22 119.01 462.03 77.57 423.07
  C 26.82 375.35 3.13 308.34 8.36 239.01
  Z
  M 339.57 158.66
  C 295.14 115.84 216.33 109.79 165.92 145.68
  C 149.00 157.72 144.36 173.94 141.23 193.49
  Q 132.16 250.30 123.60 307.17
  Q 121.66 320.02 122.42 325.39
  C 124.98 343.50 139.87 351.85 156.51 354.46
  Q 181.68 358.42 203.55 360.74
  C 273.44 368.17 339.23 345.77 366.56 276.66
  C 382.63 236.00 370.70 188.66 339.57 158.66
  Z"
/>
<path d="
  M 202.40 177.81
  C 232.51 170.23 264.40 165.27 290.97 185.69
  C 320.92 208.71 324.39 250.17 304.29 280.79
  C 284.66 310.69 252.40 313.46 221.11 311.40
  Q 201.76 310.12 182.41 308.84
  Q 181.77 308.80 181.66 308.17
  Q 181.39 306.74 181.74 304.50
  Q 191.32 241.77 201.03 179.31
  A 1.84 1.82 -2.9 0 1 202.40 177.81
  Z"
/>
</g>
<path fill="#3f4150" d="
  M 165.92 145.68
  C 216.33 109.79 295.14 115.84 339.57 158.66
  C 370.70 188.66 382.63 236.00 366.56 276.66
  C 339.23 345.77 273.44 368.17 203.55 360.74
  Q 181.68 358.42 156.51 354.46
  C 139.87 351.85 124.98 343.50 122.42 325.39
  Q 121.66 320.02 123.60 307.17
  Q 132.16 250.30 141.23 193.49
  C 144.36 173.94 149.00 157.72 165.92 145.68
  Z
  M 290.97 185.69
  C 264.40 165.27 232.51 170.23 202.40 177.81
  A 1.84 1.82 -2.9 0 0 201.03 179.31
  Q 191.32 241.77 181.74 304.50
  Q 181.39 306.74 181.66 308.17
  Q 181.77 308.80 182.41 308.84
  Q 201.76 310.12 221.11 311.40
  C 252.40 313.46 284.66 310.69 304.29 280.79
  C 324.39 250.17 320.92 208.71 290.97 185.69
  Z"
/>
<path fill="#a7a7a9" d="
  M 2.60 262.80
  C 0.34 147.23 81.53 55.29 191.02 29.29
  C 201.80 26.74 215.18 24.25 226.81 23.68
  C 335.76 18.34 437.17 81.14 470.39 186.71
  Q 473.39 196.24 475.20 206.09
  C 502.90 356.76 384.48 507.84 225.87 493.97
  C 102.82 483.21 5.06 388.70 2.60 262.80
  Z
  M 209.72 30.38
  C 104.00 47.80 16.64 129.35 8.36 239.01
  C 3.13 308.34 26.82 375.35 77.57 423.07
  C 119.01 462.03 173.85 486.22 231.32 489.39
  C 384.65 497.84 497.96 352.69 470.02 206.07
  Q 468.13 196.14 465.04 186.72
  C 431.57 84.84 337.16 26.43 231.87 28.29
  C 224.56 28.42 216.82 29.21 209.72 30.38
  Z"
/>
</svg>
