<svg xmlns="http://www.w3.org/2000/svg" version="1.1" viewBox="0 0 489 512">
  <g stroke-width="2" fill="none" stroke-linecap="butt">
    <path stroke="#d3d3d4" vector-effect="non-scaling-stroke" d="M191.02 29.29C81.53 55.29.34 147.23 2.6 262.8c2.46 125.9 100.22 220.41 223.27 231.17C384.48 507.84 502.9 356.76 475.2 206.09q-1.81-9.85-4.81-19.38C437.17 81.14 335.76 18.34 226.81 23.68c-11.63.57-25.01 3.06-35.79 5.61"/>
    <path stroke="#d3d3d4" vector-effect="non-scaling-stroke" d="M209.72 30.38C104 47.8 16.64 129.35 8.36 239.01c-5.23 69.33 18.46 136.34 69.21 184.06 41.44 38.96 96.28 63.15 153.75 66.32 153.33 8.45 266.64-136.7 238.7-283.32q-1.89-9.93-4.98-19.35C431.57 84.84 337.16 26.43 231.87 28.29c-7.31.13-15.05.92-22.15 2.09"/>
    <path stroke="#9fa0a8" vector-effect="non-scaling-stroke" d="M339.57 158.66c-44.43-42.82-123.24-48.87-173.65-12.98-16.92 12.04-21.56 28.26-24.69 47.81q-9.07 56.81-17.63 113.68-1.94 12.85-1.18 18.22c2.56 18.11 17.45 26.46 34.09 29.07q25.17 3.96 47.04 6.28c69.89 7.43 135.68-14.97 163.01-84.08 16.07-40.66 4.14-88-26.99-118"/>
    <path stroke="#9fa0a8" vector-effect="non-scaling-stroke" d="M290.97 185.69c-26.57-20.42-58.46-15.46-88.57-7.88a1.84 1.82-2.9 00-1.37 1.5q-9.71 62.46-19.29 125.19-.35 2.24-.08 3.67.11.63.75.67l38.7 2.56c31.29 2.06 63.55-.71 83.18-30.61 20.1-30.62 16.63-72.08-13.32-95.1"/>
  </g>
  <g fill="#fff">
    <path d="M8.36 239.01C16.64 129.35 104 47.8 209.72 30.38c7.1-1.17 14.84-1.96 22.15-2.09 105.29-1.86 199.7 56.55 233.17 158.43q3.09 9.42 4.98 19.35c27.94 146.62-85.37 291.77-238.7 283.32-57.47-3.17-112.31-27.36-153.75-66.32C26.82 375.35 3.13 308.34 8.36 239.01zm331.21-80.35c-44.43-42.82-123.24-48.87-173.65-12.98-16.92 12.04-21.56 28.26-24.69 47.81q-9.07 56.81-17.63 113.68-1.94 12.85-1.18 18.22c2.56 18.11 17.45 26.46 34.09 29.07q25.17 3.96 47.04 6.28c69.89 7.43 135.68-14.97 163.01-84.08 16.07-40.66 4.14-88-26.99-118z"/>
    <path d="M202.4 177.81c30.11-7.58 62-12.54 88.57 7.88 29.95 23.02 33.42 64.48 13.32 95.1-19.63 29.9-51.89 32.67-83.18 30.61l-38.7-2.56q-.64-.04-.75-.67-.27-1.43.08-3.67 9.58-62.73 19.29-125.19a1.84 1.82-2.9 011.37-1.5z"/>
  </g>
  <path fill="#3f4150" d="M165.92 145.68c50.41-35.89 129.22-29.84 173.65 12.98 31.13 30 43.06 77.34 26.99 118-27.33 69.11-93.12 91.51-163.01 84.08q-21.87-2.32-47.04-6.28c-16.64-2.61-31.53-10.96-34.09-29.07q-.76-5.37 1.18-18.22 8.56-56.87 17.63-113.68c3.13-19.55 7.77-35.77 24.69-47.81zm125.05 40.01c-26.57-20.42-58.46-15.46-88.57-7.88a1.84 1.82-2.9 00-1.37 1.5q-9.71 62.46-19.29 125.19-.35 2.24-.08 3.67.11.63.75.67l38.7 2.56c31.29 2.06 63.55-.71 83.18-30.61 20.1-30.62 16.63-72.08-13.32-95.1z"/>
  <path fill="#a7a7a9" d="M2.6 262.8C.34 147.23 81.53 55.29 191.02 29.29c10.78-2.55 24.16-5.04 35.79-5.61 108.95-5.34 210.36 57.46 243.58 163.03q3 9.53 4.81 19.38c27.7 150.67-90.72 301.75-249.33 287.88C102.82 483.21 5.06 388.7 2.6 262.8zM209.72 30.38C104 47.8 16.64 129.35 8.36 239.01c-5.23 69.33 18.46 136.34 69.21 184.06 41.44 38.96 96.28 63.15 153.75 66.32 153.33 8.45 266.64-136.7 238.7-283.32q-1.89-9.93-4.98-19.35C431.57 84.84 337.16 26.43 231.87 28.29c-7.31.13-15.05.92-22.15 2.09z"/>
</svg>
